<svg version="1.1" id="Layer_1" xmlns="http://www.w3.org/2000/svg" xmlns:xlink="http://www.w3.org/1999/xlink" x="0px" y="0px"
	 width="100%" viewBox="0 0 146 122" enable-background="new 0 0 146 122" xml:space="preserve">
<path fill="#EB2429" opacity="1.000000" stroke="none" 
	d="
M1.000000,122.000000 
	C1.000000,81.712181 1.000000,41.424355 1.000000,1.000000 
	C25.260212,1.000000 49.520653,1.000000 73.781097,1.000000 
	C98.086975,1.000000 122.392853,1.000000 147.000000,1.000000 
	C147.000000,41.020390 147.000000,81.041534 146.531342,121.533844 
	C97.708458,122.003326 49.354229,122.001663 1.000000,122.000000 
M117.973450,22.510283 
	C108.827126,28.600512 99.616959,34.598240 90.574905,40.839527 
	C87.992210,42.622238 86.124176,42.613171 83.508766,40.873066 
	C70.757088,32.389038 57.871765,24.105762 45.024986,15.764921 
	C42.016670,13.811756 38.974369,11.910931 35.483696,9.690922 
	C35.483696,31.804369 35.483696,53.105949 35.483696,75.212090 
	C40.197803,72.003464 44.471134,69.440010 48.292614,66.322639 
	C49.805325,65.088638 51.023422,62.667770 51.146122,60.710232 
	C51.515160,54.822655 51.279140,48.897152 51.279140,42.077530 
	C53.597122,43.419556 55.008854,44.178082 56.361931,45.029789 
	C65.380753,50.706757 74.477280,56.268120 83.344917,62.172855 
	C86.172180,64.055458 88.136360,63.947685 90.909843,62.155525 
	C99.438705,56.644379 108.164215,51.437065 116.825668,46.131866 
	C119.596535,44.434696 122.405968,42.800507 126.026871,40.643612 
	C126.026871,67.200012 126.026871,92.714951 126.026871,119.327698 
	C130.842575,115.436806 134.683762,112.066910 138.810394,109.093132 
	C141.546036,107.121758 142.436859,104.837212 142.424622,101.526840 
	C142.314545,71.709671 142.364578,41.891933 142.346344,12.074373 
	C142.345383,10.509839 142.152237,8.945420 141.998795,6.630182 
	C133.759491,12.065937 126.160599,17.079187 117.973450,22.510283 
M52.441124,76.098602 
	C52.293884,75.212181 52.146641,74.325760 51.905514,72.874130 
	C43.869370,78.219040 36.360519,83.213242 27.793262,88.911392 
	C27.793262,61.552567 27.793262,35.550446 27.793262,9.549327 
	C22.541943,9.549327 17.951735,9.549327 13.168705,9.549327 
	C13.168705,46.024036 13.168705,82.191208 13.168705,119.229317 
	C22.632994,112.658951 31.031763,105.714447 40.429371,100.608253 
	C50.415451,95.182320 54.536327,87.966972 52.441124,76.098602 
z"/>
<path fill="#FFFFFF" opacity="1.000000" stroke="none" 
	d="
M1.000000,122.500000 
	C49.354229,122.001663 97.708458,122.003326 146.531342,122.002502 
	C145.666672,122.333336 144.333633,122.956657 142.999954,122.958069 
	C95.666672,123.008171 48.333332,123.000000 1.000000,122.500000 
z"/>
<path fill="#FDFAFA" opacity="1.000000" stroke="none" 
	d="
M118.267578,22.301361 
	C126.160599,17.079187 133.759491,12.065937 141.998795,6.630182 
	C142.152237,8.945420 142.345383,10.509839 142.346344,12.074373 
	C142.364578,41.891933 142.314545,71.709671 142.424622,101.526840 
	C142.436859,104.837212 141.546036,107.121758 138.810394,109.093132 
	C134.683762,112.066910 130.842575,115.436806 126.026871,119.327698 
	C126.026871,92.714951 126.026871,67.200012 126.026871,40.643612 
	C122.405968,42.800507 119.596535,44.434696 116.825668,46.131866 
	C108.164215,51.437065 99.438705,56.644379 90.909843,62.155525 
	C88.136360,63.947685 86.172180,64.055458 83.344917,62.172855 
	C74.477280,56.268120 65.380753,50.706757 56.361931,45.029789 
	C55.008854,44.178082 53.597122,43.419556 51.279140,42.077530 
	C51.279140,48.897152 51.515160,54.822655 51.146122,60.710232 
	C51.023422,62.667770 49.805325,65.088638 48.292614,66.322639 
	C44.471134,69.440010 40.197803,72.003464 35.483696,75.212090 
	C35.483696,53.105949 35.483696,31.804369 35.483696,9.690922 
	C38.974369,11.910931 42.016670,13.811756 45.024986,15.764921 
	C57.871765,24.105762 70.757088,32.389038 83.508766,40.873066 
	C86.124176,42.613171 87.992210,42.622238 90.574905,40.839527 
	C99.616959,34.598240 108.827126,28.600512 118.267578,22.301361 
z"/>
<path fill="#FEFAFA" opacity="1.000000" stroke="none" 
	d="
M52.443115,76.541183 
	C54.536327,87.966972 50.415451,95.182320 40.429371,100.608253 
	C31.031763,105.714447 22.632994,112.658951 13.168705,119.229317 
	C13.168705,82.191208 13.168705,46.024036 13.168705,9.549327 
	C17.951735,9.549327 22.541943,9.549327 27.793262,9.549327 
	C27.793262,35.550446 27.793262,61.552567 27.793262,88.911392 
	C36.360519,83.213242 43.869370,78.219040 51.905514,72.874130 
	C52.146641,74.325760 52.293884,75.212181 52.443115,76.541183 
z"/>
</svg>